<svg width="459" height="459" viewBox="0 0 459 459" fill="none" xmlns="http://www.w3.org/2000/svg">
<path fill-rule="evenodd" clip-rule="evenodd" d="M458.735 242.806C458.408 246.967 458.194 251.141 457.778 255.289C456.683 265.981 454.754 276.571 452.008 286.962C440.468 330.916 418.081 368.452 384.469 398.991C365.598 416.213 344.045 430.238 320.66 440.511C291.87 452.892 260.834 459.185 229.5 458.996C198.166 459.185 167.13 452.892 138.34 440.511C114.952 430.236 93.3948 416.212 74.5179 398.991C40.9061 368.452 18.5318 330.904 6.99196 286.962C4.24626 276.571 2.31706 265.981 1.22202 255.289C0.806281 251.141 0.592101 246.967 0.26455 242.806C0.26455 242.302 0.0881869 241.798 0 241.293V217.803C0.115292 217.411 0.199536 217.011 0.251959 216.605C1.7375 186.232 9.416 156.483 22.8152 129.189C28.1679 118.153 34.4121 107.573 41.4856 97.5538C41.7754 97.1251 42.0525 96.6964 42.4683 96.0533H35.5645C35.1614 94.7925 35.0354 64.9728 35.3881 62.2872C35.9424 62.2872 36.5471 62.2241 37.1393 62.2241C48.2004 62.2241 59.2658 62.2241 70.3353 62.2241C70.923 62.2462 71.5088 62.1455 72.0554 61.9284C72.602 61.7113 73.0974 61.3826 73.51 60.9632C101.79 34.6895 136.274 16.034 173.728 6.74568C183.26 4.36226 192.94 2.61838 202.704 1.52567C210.999 0.58253 219.338 0.0732766 227.686 0C228.316 0 228.946 0 229.563 0C230.18 0 230.823 0 231.44 0C239.752 0.0973502 248.052 0.627647 256.309 1.58871C266.073 2.68031 275.753 4.4242 285.284 6.80873C322.739 16.0944 357.224 34.7503 385.503 61.0263C385.918 61.446 386.415 61.7748 386.964 61.9918C387.513 62.2089 388.1 62.3095 388.69 62.2872C399.751 62.2872 410.812 62.2872 421.873 62.2872C422.478 62.2872 423.133 62.2872 423.637 62.3502C423.99 65.0359 423.851 94.8681 423.461 96.1164H416.519C416.947 96.7595 417.225 97.1881 417.514 97.6042C424.585 107.629 430.829 118.213 436.185 129.252C449.578 156.548 457.256 186.296 458.748 216.669C458.796 217.075 458.88 217.476 459 217.866V241.356C458.912 241.798 458.773 242.327 458.735 242.806ZM237.638 10.957H233.531L229.5 11.0579L225.469 10.957H221.362V40.3101C222.709 40.5409 224.08 40.6044 225.443 40.4993C226.791 40.4993 228.139 40.4993 229.5 40.4993C230.848 40.4993 232.209 40.4993 233.557 40.4993C234.92 40.6044 236.291 40.5409 237.638 40.3101V10.957ZM447.637 211.032H401.376C401.842 214.563 402.359 218.018 402.737 221.485C403.11 224.981 403.211 228.501 403.039 232.013H392.192C391.613 226.579 391.121 221.157 390.441 215.748C389.645 210.318 388.453 204.953 386.876 199.697H446.288C445.848 192.535 440.884 170.193 438.503 164.645H416.746C416.388 160.919 416.35 157.168 416.633 153.436H434.799C427.228 132.958 416.549 113.769 403.14 96.5451C402.913 99.0668 402.964 101.513 402.951 103.972C402.938 106.43 402.951 109.015 402.951 111.537V164.494H373.471C373.146 160.816 373.117 157.118 373.383 153.436H391.638V96.066H371.33C370.957 92.3444 370.927 88.5964 371.241 84.8694H412.526V73.5215C409.174 73.4207 405.798 73.5215 402.447 73.5215H330.965V62.3628H370.019C368.356 59.2358 345.944 43.7901 333.573 37.1453C320.529 30.0639 306.797 24.3309 292.591 20.0353C279.426 16.0761 255.477 11.5622 248.851 11.8522V51.6958L229.5 51.7841L210.137 51.6958V11.8522C203.51 11.5622 179.561 16.0887 166.409 20.0353C152.218 24.2954 138.495 29.9859 125.452 37.0192C113.068 43.6893 90.6687 59.135 89.0057 62.2367H128.06V73.3702H56.5908C53.2271 73.3702 49.8634 73.3702 46.5123 73.3702V84.7181H87.7963C88.0977 88.4455 88.0682 92.1924 87.7081 95.9147H67.337V153.436H85.6168C85.887 157.118 85.8617 160.816 85.5412 164.494H55.9986V103.972C55.9986 101.513 55.9986 99.0416 55.7971 96.5451C42.3915 113.769 31.7175 132.958 24.1506 153.436H42.3171C42.5936 157.169 42.5557 160.918 42.2037 164.645H20.4467C18.0657 170.193 13.1021 192.535 12.6611 199.697H72.0738C70.526 204.956 69.3639 210.32 68.5968 215.748C67.9165 221.157 67.4251 226.579 66.8456 232.013H55.9986C55.827 228.501 55.9281 224.981 56.301 221.485C56.679 218.018 57.1955 214.563 57.649 211.032H11.3887C9.91042 228.719 10.5575 246.52 13.3162 264.052C15.3193 264.418 56.5656 264.317 57.6994 263.951C56.3477 257.448 55.7767 250.807 55.9986 244.168C59.6694 243.886 63.3578 243.924 67.022 244.282C67.3118 247.774 67.4881 251.279 67.9039 254.747C68.3196 258.214 68.8991 261.77 69.592 265.237C70.2849 268.705 71.2172 271.958 72.1116 275.488H15.4201C21.5059 303.793 33.1587 330.603 49.6996 354.356C58.2789 366.7 78.058 388.98 82.2405 391.01C89.623 378.199 97.0223 365.372 104.438 352.528C88.7228 337.242 76.3842 318.828 68.2188 298.474H62.852L55.1168 326.213L44.358 323.2C46.6634 314.865 48.9311 306.695 51.2366 298.348C47.5327 298.348 44.0934 298.348 40.6667 298.348C37.24 298.348 33.7252 298.461 30.2607 298.247V287.315H75.6139C75.7147 287.53 75.7777 287.618 75.8155 287.706C75.9541 288.11 76.0801 288.5 76.2312 288.891C86.3163 317.518 105.173 342.229 130.113 359.5C144.559 369.494 160.484 377.153 177.306 382.196L179.309 382.852C179.624 386.319 179.485 429.353 179.133 430.651C175.542 430.651 171.927 430.651 168.147 430.651V403.442H108.508V392.27H168.072C168.124 392.029 168.161 391.785 168.185 391.539C168.174 391.252 168.149 390.966 168.109 390.682C161.458 388.394 154.935 385.746 148.57 382.751C142.202 379.737 136.018 376.347 130.05 372.601C124.106 368.816 118.397 364.672 112.955 360.194L90.6561 398.676C99.8592 406.25 109.673 413.048 119.997 419.001C130.342 424.979 141.163 430.09 152.349 434.283C163.864 438.607 183.529 444.054 186.666 443.752V412.722H197.904V445.933C198.139 446.01 198.379 446.073 198.622 446.122C206.529 447.223 214.49 447.884 222.47 448.102C224.813 448.102 227.157 448.266 229.5 448.354C231.843 448.442 234.186 448.152 236.53 448.102C244.51 447.883 252.471 447.223 260.378 446.122C260.621 446.073 260.861 446.01 261.096 445.933V412.722H272.334V443.802C275.471 444.105 295.124 438.658 306.638 434.333C317.83 430.143 328.655 425.032 339.003 419.051C349.329 413.082 359.143 406.267 368.344 398.676L346.108 360.194C340.664 364.675 334.951 368.819 329 372.601C323.034 376.35 316.85 379.74 310.481 382.751C304.112 385.739 297.59 388.386 290.941 390.682C290.901 390.966 290.876 391.252 290.865 391.539C290.889 391.785 290.927 392.029 290.979 392.27H350.555V403.442H290.916V430.664C287.136 430.765 283.508 430.664 279.93 430.664C279.578 429.403 279.439 386.332 279.741 382.864L281.744 382.209C298.571 377.168 314.501 369.509 328.95 359.513C353.89 342.241 372.747 317.531 382.832 288.904L383.247 287.719C383.247 287.63 383.336 287.542 383.449 287.328H428.802V298.26C425.338 298.474 421.873 298.335 418.396 298.361C414.919 298.386 411.53 298.361 407.826 298.361C410.132 306.707 412.4 314.878 414.705 323.212L403.946 326.226C401.351 316.895 398.781 307.678 396.198 298.487H390.832C382.663 318.844 370.31 337.256 354.574 352.528L376.785 391.01C380.967 388.98 400.721 366.7 409.326 354.356C425.854 330.6 437.494 303.79 443.567 275.488H386.876C387.745 271.958 388.677 268.629 389.395 265.237C390.113 261.846 390.655 258.265 391.096 254.747C391.537 251.229 391.688 247.774 391.965 244.282C395.63 243.924 399.318 243.886 402.989 244.168C403.217 250.807 402.646 257.449 401.288 263.951C402.409 264.317 443.668 264.418 445.659 264.052C448.441 246.522 449.105 228.721 447.637 211.032ZM413.37 257.105V219.632H436.55C436.865 220.729 436.966 254.86 436.651 257.067L413.37 257.105ZM373.597 187.328C377.527 197.453 380.221 208.016 381.622 218.787C383.095 229.871 383.247 241.092 382.076 252.213C378.599 284.718 365.434 312.659 342.253 335.682C323.399 354.664 300.065 368.58 274.412 376.144C274.06 376.245 273.719 376.346 273.367 376.472C273.233 376.563 273.107 376.664 272.989 376.774V403.164H261.902C261.902 385.89 261.902 368.616 261.902 351.342H273.014V364.329C283.574 361.112 293.721 356.669 303.249 351.09V287.492H314.084C314.125 287.526 314.163 287.564 314.197 287.605C314.223 287.64 314.245 287.678 314.26 287.719C314.267 287.769 314.267 287.82 314.26 287.87C314.266 287.971 314.266 288.072 314.26 288.173C314.266 288.278 314.266 288.383 314.26 288.488V289.118C314.26 307.073 314.26 325.032 314.26 342.995C314.254 343.096 314.254 343.197 314.26 343.298C314.26 343.298 314.26 343.399 314.336 343.563C314.656 343.48 314.965 343.357 315.255 343.197C332.792 330.651 347.242 315.344 357.182 296.041C363.585 283.646 367.845 270.255 369.78 256.436C374.186 226.987 368.232 196.92 352.936 171.378C346.909 160.753 339.944 150.689 332.124 141.306C323.81 131.458 314.228 122.758 303.627 115.433C303.254 115.213 302.951 114.891 302.754 114.505C302.558 114.118 302.476 113.683 302.519 113.252C302.582 109.759 302.519 106.266 302.519 102.761C302.519 97.0747 302.657 91.4133 302.733 85.7142C302.733 85.5125 302.733 85.3107 302.808 84.9325H361.176V121.283H350.077V96.066H314.071C313.994 96.4827 313.944 96.9038 313.92 97.3268C313.92 100.618 313.92 103.909 313.92 107.199C313.895 107.583 313.972 107.967 314.145 108.311C314.318 108.654 314.58 108.945 314.903 109.154C327.921 118.975 339.417 130.668 349.018 143.853C349.258 144.181 349.535 144.483 350.026 145.114V130.589H371.569V105.22C375.348 105.22 378.977 105.22 382.693 105.22V141.785H361.352C361.352 142.454 361.264 143.046 361.264 143.55C361.264 149.023 361.264 154.486 361.264 159.942C361.347 160.4 361.347 160.87 361.264 161.329C361.174 161.569 361.146 161.828 361.184 162.081C361.221 162.335 361.322 162.575 361.478 162.779C363.494 166.376 365.501 169.978 367.5 173.584C367.815 174.152 368.155 174.492 368.76 174.429C369.226 174.429 369.704 174.429 370.171 174.429H430.163V185.588C425.464 185.588 420.74 185.588 416.015 185.588H373.005C373.245 186.269 373.396 186.849 373.597 187.328ZM303.451 162.022L303.678 161.884C310.481 170.256 317.271 178.641 324.339 187.315H303.451V162.022ZM313.277 253.108H304.245V244.118H313.277V253.108ZM304.333 222.922H313.152C313.546 225.967 313.589 229.047 313.277 232.102C310.38 232.102 307.445 232.102 304.534 232.102C304.085 229.062 304.017 225.979 304.333 222.922ZM328.332 222.922H337.39V232.001H328.332C328.206 228.975 328.219 225.999 328.332 222.948V222.922ZM337.365 253.095H328.357V244.105H337.252C337.599 247.098 337.637 250.119 337.365 253.12V253.095ZM156.091 253.095H147.058V244.105H156.091V253.095ZM147.272 222.91H156.091C156.433 225.963 156.387 229.048 155.952 232.089C153.042 232.089 150.107 232.089 147.133 232.089C146.82 229.04 146.854 225.964 147.234 222.922L147.272 222.91ZM122.983 222.91H132.041C132.154 225.961 132.167 228.937 132.041 231.988H122.995L122.983 222.91ZM123.121 244.093H132.016V253.083H123.008C122.721 250.104 122.746 247.104 123.084 244.13L123.121 244.093ZM156.922 161.984V187.278H136.072L156.695 161.846L156.922 161.984ZM291.936 73.3702V120.023C304.124 127.854 314.827 137.788 323.545 149.363L315.079 156.096C308.477 147.389 300.692 139.648 291.949 133.098V199.458C293.095 199.773 338.486 199.861 340.565 199.533C336.138 187.417 330.004 175.995 322.348 165.616L330.827 158.883C346.713 180.771 356.527 204.778 358.24 232.013H347.406C346.934 224.924 345.817 217.893 344.067 211.007H291.949V264.166H345.189C346.589 257.576 347.406 250.876 347.633 244.143H358.354C357.396 276.005 345.755 303.127 323.205 326.024C323.205 325.268 323.104 324.826 323.104 324.385C323.104 320.048 323.104 315.723 323.104 311.385C323.089 310.462 323.411 309.565 324.011 308.864C331.586 299.533 337.501 288.969 341.497 277.632C341.711 276.989 341.9 276.371 342.14 275.577H291.886C291.886 282.562 291.886 289.543 291.886 296.52H168.424C168.424 289.534 168.424 282.553 168.424 275.577H118.17C118.41 276.346 118.599 276.989 118.813 277.632C122.811 288.977 128.735 299.547 136.324 308.876C136.926 309.576 137.245 310.475 137.219 311.398C137.219 315.735 137.219 320.06 137.219 324.398C137.219 324.839 137.219 325.28 137.105 326.037C114.63 303.139 102.927 276.018 101.919 244.156H112.69C112.942 250.887 113.785 257.582 115.21 264.166H168.449V211.007H116.331C114.581 217.893 113.464 224.924 112.993 232.013H102.158C103.872 204.791 113.685 180.784 129.572 158.883L138.05 165.616C130.385 175.989 124.25 187.412 119.833 199.533C121.912 199.861 167.303 199.773 168.449 199.458V133.098C159.707 139.648 151.921 147.389 145.319 156.096L136.853 149.363C145.553 137.794 156.234 127.86 168.399 120.023V73.3702H139.638C139.329 69.6463 139.376 65.9014 139.776 62.1863H164.758C168.928 62.1863 173.111 62.1863 177.281 62.1863C181.451 62.1863 185.57 62.2872 189.879 62.098V27.7266C193.614 27.3763 197.376 27.4143 201.104 27.8401V62.2115C208.146 62.2115 215.05 62.2115 222.105 62.2115V110.969H238.306V62.2241C245.361 62.2241 252.265 62.2241 259.307 62.2241V27.8401C263.035 27.4143 266.797 27.3763 270.532 27.7266V62.1232C274.803 62.3124 278.948 62.1232 283.13 62.2115C287.313 62.2998 291.483 62.2115 295.653 62.2115H320.559C320.953 65.9187 320.996 69.655 320.685 73.3702H291.936ZM280.447 285.285L280.333 167.053H255.049H230.168H205.286H180.002L179.889 285.285H280.447ZM249.518 73.4585V122.04H210.817V73.5215H179.813V155.857H280.522V73.5215L249.518 73.4585ZM190.307 84.8694H201.444V133.527H223.554C225.733 133.527 227.925 133.527 230.117 133.527C232.309 133.527 234.489 133.527 236.681 133.527H258.879V84.9325H270.003V144.811H190.269L190.307 84.8694ZM190.408 244.584L190.521 244.483H201.444V264.115C202.086 264.115 202.54 264.191 203.006 264.191H228.958C229.374 264.191 229.79 264.128 230.218 264.103C230.646 264.077 231.05 264.191 231.478 264.191H257.443C257.909 264.191 258.362 264.191 259.005 264.115V244.546H269.927L270.028 244.647C270.028 244.647 270.116 244.723 270.129 244.761C270.177 244.964 270.206 245.17 270.217 245.379C270.217 255.188 270.217 264.994 270.217 274.795C270.181 275.015 270.122 275.23 270.041 275.438H190.383C190.302 275.23 190.243 275.015 190.206 274.795C190.206 264.985 190.206 255.18 190.206 245.379C190.217 245.17 190.247 244.964 190.295 244.761C190.295 244.761 190.345 244.685 190.37 244.647L190.408 244.584ZM259.03 210.868H201.343V231.37H190.282V179.284H201.419V199.785H258.917V179.284H270.053V231.496H258.992L259.03 210.868ZM209.897 177.745H250.413V188.917H209.91L209.897 177.745ZM157.565 85.7016C157.64 91.3881 157.728 97.0494 157.766 102.749C157.766 106.254 157.766 109.746 157.766 113.239C157.809 113.671 157.727 114.105 157.531 114.492C157.334 114.879 157.031 115.201 156.658 115.42C146.033 122.753 136.428 131.466 128.098 141.331C120.274 150.714 113.304 160.778 107.273 171.403C91.987 196.949 86.0378 227.014 90.4419 256.462C92.391 270.285 96.6722 283.677 103.103 296.066C113.043 315.37 127.48 330.677 145.03 343.222C145.277 343.364 145.539 343.478 145.811 343.563C145.811 343.399 145.811 343.348 145.886 343.298C145.893 343.197 145.893 343.096 145.886 342.995C145.886 325.032 145.886 307.073 145.886 289.118V288.173V287.87C145.873 287.82 145.873 287.768 145.886 287.719C145.904 287.67 145.934 287.626 145.974 287.593C146.006 287.549 146.044 287.51 146.088 287.479H156.973V351.078C166.501 356.655 176.649 361.098 187.208 364.317V351.33H198.332V403.152H187.246V376.774C187.019 376.598 186.956 376.509 186.855 376.472C186.515 376.346 186.175 376.245 185.822 376.144C160.199 368.553 136.901 354.62 118.082 335.632C94.9016 312.608 81.7366 284.667 78.2469 252.162C77.0853 241.041 77.2417 229.821 78.7131 218.736C80.1159 207.967 82.806 197.405 86.7255 187.278C86.927 186.761 87.0908 186.218 87.3302 185.512H44.295C39.5707 185.512 34.8464 185.512 30.1473 185.512V174.391H90.1774C90.6435 174.391 91.1222 174.391 91.5883 174.391C91.8718 174.421 92.1569 174.354 92.3972 174.2C92.6375 174.047 92.8186 173.816 92.9112 173.547C94.8891 169.928 96.9048 166.334 98.9205 162.741C99.0814 162.54 99.187 162.301 99.2268 162.046C99.2666 161.792 99.2391 161.531 99.1472 161.291C99.037 160.837 99.0156 160.366 99.0842 159.904C99.0842 154.419 99.0842 148.934 99.0842 143.513C99.0842 142.958 99.0212 142.416 98.9834 141.747H77.6548V105.182C81.3713 105.182 84.9869 105.182 88.7664 105.182V130.551H110.334V145.013C110.826 144.408 111.103 144.105 111.342 143.752C120.941 130.587 132.433 118.915 145.445 109.116C145.768 108.908 146.03 108.616 146.203 108.273C146.376 107.929 146.453 107.546 146.428 107.162C146.428 103.871 146.428 100.58 146.428 97.289C146.409 96.8662 146.362 96.4451 146.289 96.0281H110.284V121.246H99.185V84.9325H157.527C157.54 85.2981 157.577 85.5125 157.577 85.7142L157.565 85.7016ZM179.939 351.292H168.865V306.266H180.027V326.188H221.223C221.223 329.937 221.223 333.678 221.223 337.41H180.002L179.939 351.292ZM250.337 359.084H210.023V347.736H250.337V359.084ZM230.18 368.629H250.262V434.081H239.1V379.763H221.248V434.094H210.086V368.629H230.168H230.18ZM190.282 317.412V306.279H230.18H270.079V317.412H190.269H190.282ZM239.112 326.175H280.245V306.254H291.407V351.292H280.333V337.422H239.15C239.138 333.678 239.112 329.933 239.1 326.188L239.112 326.175ZM23.7852 219.632H46.9658V257.067H23.6845C23.3695 254.936 23.4703 220.766 23.7852 219.632ZM93.9946 352.023L88.401 361.707L55.6459 342.794L61.2647 333.11L93.9946 352.023ZM366.328 352.023L399.083 333.11L404.702 342.794L371.947 361.707L366.328 352.023Z" fill="white"/>
</svg>
