<svg width="50" height="50" viewBox="0 0 50 50" fill="none" xmlns="http://www.w3.org/2000/svg">
<path fill-rule="evenodd" clip-rule="evenodd" d="M23.7465 4C18.6018 4.29958 13.7467 6.48185 10.1056 10.1314C6.46437 13.781 4.29132 18.643 4 23.792H23.7465V4ZM23.7509 26.1992V46C18.605 45.6984 13.7493 43.5144 10.1076 39.8635C6.46588 36.2126 4.29218 31.3495 4 26.1992H23.7509ZM39.8935 39.8646C36.2515 43.5157 31.3953 45.6993 26.249 46V26.1992H46C45.7087 31.3498 43.5354 36.2134 39.8935 39.8646ZM26.249 23.792V4C31.3937 4.29958 36.2488 6.48185 39.89 10.1314C43.5311 13.781 45.7042 18.643 45.9956 23.792H26.249ZM28.6191 6.97541C28.625 11.7088 28.6279 16.4496 28.6279 21.1977H42.65C41.9484 17.7177 40.247 14.5183 37.7546 11.9919C35.2623 9.46555 32.0873 7.7221 28.6191 6.97541ZM36.8814 15.5662C35.6477 13.5062 33.7688 11.9116 31.5365 11.03V18.7375H38.0599C37.8484 17.6173 37.45 16.5407 36.8814 15.5529V15.5662ZM21.2241 21.1977C21.2241 16.4496 21.2272 11.7088 21.2334 6.97541C17.5821 7.7221 14.2396 9.46555 11.6156 11.9919C8.99173 14.5183 7.20055 17.7177 6.46188 21.1977H21.2241ZM18.162 11.03C15.8119 11.9116 13.8338 13.5062 12.535 15.5662V15.5529C11.9364 16.5407 11.517 17.6173 11.2943 18.7375H18.162V11.03ZM21.2334 42.9067C21.2272 38.1732 21.2241 33.4325 21.2241 28.6844H6.46188C7.20055 32.1644 8.99173 35.3638 11.6156 37.8902C14.2396 40.4165 17.5821 42.16 21.2334 42.9067ZM12.535 34.3159C13.8338 36.3759 15.8119 37.9705 18.162 38.8521V31.1446H11.2943C11.517 32.2648 11.9364 33.3414 12.535 34.3292V34.3159ZM27.6436 28.6844C27.6436 33.4325 27.6406 38.1732 27.6344 42.9067C31.2856 42.16 34.6282 40.4165 37.2521 37.8902C39.876 35.3638 41.6672 32.1644 42.4059 28.6844H27.6436ZM30.7057 38.8521C33.0559 37.9705 35.034 36.3759 36.3328 34.3159V34.3292C36.9313 33.3414 37.3508 32.2648 37.5734 31.1446H30.7057V38.8521Z" fill="white"/>
</svg>
