<svg width="50" height="50" viewBox="0 0 50 50" fill="none" xmlns="http://www.w3.org/2000/svg">
<path d="M36.7547 43.1699H42.9645L42.9735 40.3951H46V45.9632H45.9418V46H33.7148V38.039C36.0436 36.544 37.9642 34.4645 39.2957 31.9963C40.6271 29.5281 41.3258 26.7523 41.3259 23.9301C41.3152 19.503 39.5961 15.2611 36.5458 12.1354C33.4955 9.00974 29.3632 7.25562 25.056 7.25807C22.9207 7.25262 20.8054 7.67958 18.8308 8.51454C16.8561 9.3495 15.0609 10.5761 13.5475 12.1243C12.0341 13.6725 10.8324 15.512 10.0108 17.5376C9.18918 19.5633 8.7639 21.7355 8.7592 23.9301C8.75776 26.7539 9.45569 29.5316 10.7872 32.0015C12.1188 34.4715 14.0402 36.5524 16.3703 38.0482V45.9632V46H4.05372V45.9632H4V40.3951H7.02207V43.1791H13.2319V39.7785C10.8478 37.9264 8.91398 35.5313 7.58247 32.7814C6.25097 30.0315 5.55801 27.0017 5.55803 23.9301C5.5699 18.6337 7.62768 13.559 11.279 9.82161C14.9302 6.08426 19.8761 3.99028 25.0291 4.00005C27.5814 3.994 30.1098 4.50471 32.4701 5.50301C34.8303 6.50132 36.9761 7.96768 38.785 9.81836C40.5939 11.669 42.0304 13.8678 43.0126 16.2891C43.9947 18.7104 44.5033 21.3068 44.5091 23.9301C44.5067 27.0172 43.8047 30.0612 42.4587 32.8209C41.1127 35.5805 39.1598 37.98 36.7547 39.8291V43.1699Z" fill="white"/>
</svg>
