<svg width="50" height="50" viewBox="0 0 50 50" fill="none" xmlns="http://www.w3.org/2000/svg">
<path d="M8 7H37.4667H43C41.3177 11.8736 40.4513 16.9931 40.4359 22.1507H35.4102C35.3735 20.1662 35.4557 18.1813 35.6564 16.2067C35.8308 14.4724 36.0821 12.8462 36.3846 11.3383H14.6153C14.9179 12.8462 15.1692 14.4724 15.3436 16.2067C15.5417 18.1815 15.624 20.1663 15.5898 22.1507H10.5641C10.5487 16.9931 9.68231 11.8736 8 7Z" fill="white"/>
<path d="M35.4154 26.8493H40.4359C40.4513 32.0069 41.3177 37.1264 43 42H8C9.68231 37.1264 10.5487 32.0069 10.5641 26.8493H15.5898C15.6239 28.8337 15.5416 30.8185 15.3436 32.7933C15.1692 34.5276 14.9179 36.1487 14.6153 37.6617H36.3897C36.0872 36.1487 35.8359 34.5276 35.6615 32.7933C35.4609 30.8187 35.3787 28.8338 35.4154 26.8493Z" fill="white"/>
<path d="M21.1026 33.2822V15.7847H29.8923V33.2822H21.1026Z" fill="white"/>
</svg>
